<?xml version="1.0" encoding="utf-8"?>
<!-- Generator: Adobe Illustrator 21.0.2, SVG Export Plug-In . SVG Version: 6.00 Build 0)  -->
<svg version="1.1" xmlns="http://www.w3.org/2000/svg" xmlns:xlink="http://www.w3.org/1999/xlink" x="0px" y="0px"
	 viewBox="0 0 218.8 46" style="enable-background:new 0 0 218.8 46;" xml:space="preserve">
<style type="text/css">
	.st0{fill:#4CB5BF;}
	.st1{fill:#F0F0F0;}
	.st2{fill:#88304E;}
	.st3{opacity:0.2;}
	.st4{fill:#333333;}
	.st5{fill:#9E9E9E;}
	.st6{opacity:0.5;fill:#FFFFFF;}
	.st7{fill:#FFFFFF;}
	.st8{fill:#3A3A3A;}
	.st9{clip-path:url(#SVGID_6_);}
	.st10{clip-path:url(#SVGID_12_);}
	.st11{fill:none;stroke:#4CB5BF;stroke-miterlimit:10;}
	.st12{opacity:0.43;fill:#FFFFFF;}
	.st13{fill:none;stroke:#FFD261;stroke-width:11;stroke-linecap:round;stroke-miterlimit:10;}
	.st14{opacity:0.55;}
	.st15{fill:none;}
	.st16{fill:#FFCC52;}
	.st17{fill:#303030;}
	.st18{fill:none;stroke:#3B3A3A;stroke-width:0.5;stroke-miterlimit:10;}
	.st19{fill:#3A3939;}
	.st20{fill:none;stroke:#3A3939;stroke-miterlimit:10;}
	.st21{opacity:0.75;fill:#FFFFFF;}
	.st22{opacity:0.75;}
	.st23{fill:none;stroke:#383738;stroke-miterlimit:10;}
	.st24{clip-path:url(#SVGID_34_);}
	.st25{clip-path:url(#SVGID_40_);}
	.st26{clip-path:url(#SVGID_58_);}
	.st27{clip-path:url(#SVGID_64_);}
	.st28{clip-path:url(#SVGID_70_);}
	.st29{fill:none;stroke:#88304E;stroke-miterlimit:10;}
	.st30{fill:none;stroke:#88304E;stroke-width:13;stroke-linecap:round;stroke-linejoin:round;stroke-miterlimit:10;}
	.st31{fill:#666666;}
	.st32{fill:#FFCC5C;}
	.st33{fill:#494949;}
	.st34{clip-path:url(#SVGID_88_);}
	.st35{fill:#66273F;}
	.st36{fill:none;stroke:#FFD261;stroke-width:5;stroke-miterlimit:10;}
	.st37{opacity:0.5;fill:#494949;}
	.st38{opacity:0.36;fill:#4CB5BF;}
	.st39{fill:#606060;}
	.st40{opacity:0.5;}
	.st41{clip-path:url(#SVGID_106_);}
	.st42{fill:#3B3A3A;}
	.st43{clip-path:url(#SVGID_112_);}
	.st44{opacity:0.43;}
	.st45{fill:#FFD261;}
	.st46{fill:#878787;}
	.st47{fill:#383738;}
	.st48{clip-path:url(#SVGID_130_);}
	.st49{clip-path:url(#SVGID_148_);}
	.st50{clip-path:url(#SVGID_154_);}
	.st51{clip-path:url(#SVGID_172_);}
</style>
<g id="Capa_1">
</g>
<g id="Capa_3">
	<g>
		<circle class="st37" cx="30.3" cy="27.5" r="16.5"/>
		<circle class="st37" cx="16.3" cy="11.5" r="10.5"/>
		<circle class="st37" cx="15.3" cy="31.5" r="13.5"/>
		<circle class="st33" cx="29.3" cy="23.5" r="8.5"/>
	</g>
	<g>
		<path class="st33" d="M62.1,19.9v11.5h-2.7V17.1l2-0.4l0.6,1.5c1.2-0.7,3.1-1.5,4.5-1.5c1.7,0,2.9,0.6,3.6,1.8
			c1.3-0.7,3.5-1.8,5-1.8c2.7,0,4.2,1.6,4.2,4.2v10.4h-2.7v-9.4c0-2-0.9-3-2.5-3c-1.1,0-2.3,0.5-3.4,1c0.1,0.3,0.1,0.7,0.1,1v10.4
			h-2.7v-9.4c0-2-0.9-3-2.5-3C64.4,18.9,63.2,19.3,62.1,19.9z"/>
		<path class="st33" d="M89.2,31.7c-3.7,0-6.7-2.2-6.7-7.2c0-5,2.8-7.9,6.6-7.9c3.5,0,5.2,2.3,5.2,5.4c0,0.6,0,1.5-0.1,1.8h-9.1v0.2
			c0,4.1,2.3,5.4,4.6,5.4c1.4,0,2.8-0.3,4.1-0.8l0.5,1.8C92.8,31.2,91,31.7,89.2,31.7z M85.2,22.2h6.4c0-2.5-1-3.7-3.1-3.7
			C86.7,18.5,85.6,19.4,85.2,22.2z"/>
		<path class="st33" d="M102,31.7c-2.1,0-3.9-1.2-3.9-3.7l0.1-9h-2.3v-1.6l2.4-0.3l0-2.4l2.7-0.4l0,2.9h4.7l-0.3,1.9H101l-0.1,8.1
			c0,1.6,0.9,2.3,2.1,2.3c1,0,2-0.2,2.6-0.4l0.3,1.8C104.9,31.3,103.2,31.7,102,31.7z"/>
		<path class="st33" d="M115.7,30.1c-1.2,0.8-2.9,1.6-4.1,1.6c-2.3,0-4.1-1.5-4.1-3.8c0-2.7,2.3-4.6,8.1-4.7v-1.3c0-2-1-3-2.8-3
			c-1.3,0-2.9,0.5-4.3,1l-0.6-1.9c2-0.8,3.6-1.3,5.8-1.3c2.8,0,4.5,1.5,4.5,4.6v10l-1.9,0.4L115.7,30.1z M115.6,28.6v-3.4
			c-0.5-0.1-1.3-0.1-2.3-0.1c-2,0-3.4,0.8-3.4,2.3c0,1.6,1.2,2.3,2.4,2.3C113.3,29.7,114.5,29.2,115.6,28.6z"/>
		<path class="st33" d="M132.6,30.7c-1,0.5-2.9,1-4.6,1c-4,0-6.5-2.7-6.5-7.2c0-4.8,3-7.9,6.9-7.9c1.8,0,3.2,0.3,3.9,0.6l-0.5,2.1
			c-0.9-0.3-2.2-0.7-3.5-0.7c-2.4,0-4.1,1.6-4.1,5.4c0,3.8,1.9,5.5,4.4,5.5c1.3,0,2.7-0.3,3.5-0.7L132.6,30.7z"/>
		<path class="st33" d="M142.7,30.1c-1.2,0.8-2.9,1.6-4.1,1.6c-2.3,0-4.1-1.5-4.1-3.8c0-2.7,2.3-4.6,8.1-4.7v-1.3c0-2-1-3-2.8-3
			c-1.3,0-2.9,0.5-4.3,1L135,18c2-0.8,3.6-1.3,5.8-1.3c2.8,0,4.5,1.5,4.5,4.6v10l-1.9,0.4L142.7,30.1z M142.6,28.6v-3.4
			c-0.5-0.1-1.3-0.1-2.3-0.1c-2,0-3.4,0.8-3.4,2.3c0,1.6,1.2,2.3,2.4,2.3C140.3,29.7,141.5,29.2,142.6,28.6z"/>
		<path class="st33" d="M152.3,19.9v11.5h-2.7V17.1l2-0.4l0.6,1.5c1.2-0.7,3.1-1.5,4.5-1.5c1.7,0,2.9,0.6,3.6,1.8
			c1.3-0.7,3.5-1.8,5-1.8c2.7,0,4.2,1.6,4.2,4.2v10.4h-2.7v-9.4c0-2-0.9-3-2.5-3c-1.1,0-2.3,0.5-3.4,1c0.1,0.3,0.1,0.7,0.1,1v10.4
			h-2.7v-9.4c0-2-0.9-3-2.5-3C154.5,18.9,153.3,19.3,152.3,19.9z"/>
		<path class="st33" d="M173.7,38.3V17.1l2-0.4l0.6,1.6c1.3-0.8,3.2-1.6,4.4-1.6c2.8,0,5.7,2.1,5.7,7.2c0,5.5-3.6,7.9-6.8,7.9
			c-1.1,0-2.2-0.2-3.1-0.5v6.7L173.7,38.3z M183.6,24.1c0-4.1-2.2-5.3-4-5.3c-1.1,0-2.2,0.3-3.2,0.9V29c1,0.3,2.2,0.6,3.5,0.6
			C182,29.6,183.6,28,183.6,24.1z"/>
		<path class="st33" d="M198.6,30.2c-1.3,0.7-3.2,1.5-4.7,1.5c-2.7,0-4.4-1.6-4.4-4.2V17.1l2.7-0.4v9.8c0,2,1.2,3,2.8,3
			c1.1,0,2.3-0.5,3.3-1V17.1l2.7-0.4v14.6l-1.9,0.4L198.6,30.2z"/>
		<path class="st33" d="M204.6,30.9l0.5-2.2c1.6,0.6,3.1,1,4.9,1c1.2,0,2.3-0.6,2.3-2c0-1.1-0.9-1.8-2.2-2.3l-2.1-0.8
			c-1.6-0.6-3-1.6-3-3.7c0-2.6,2.8-4.2,5.1-4.2c2.1,0,3.8,0.3,4.5,0.7l-0.5,2.2c-1.5-0.4-3.1-0.8-4.2-0.8c-1.5,0-2.3,0.6-2.3,1.7
			c0,1.1,0.6,1.6,2.2,2.3l1.8,0.7c1.9,0.7,3.4,1.8,3.4,3.9c0,2.9-2.9,4.5-5.7,4.5C207.3,31.7,205.6,31.3,204.6,30.9z"/>
	</g>
</g>
<g id="Capa_2">
</g>
</svg>
