<?xml version="1.0" encoding="utf-8"?>
<!-- Generator: Adobe Illustrator 21.0.2, SVG Export Plug-In . SVG Version: 6.00 Build 0)  -->
<svg version="1.1" id="Capa_1" xmlns="http://www.w3.org/2000/svg" xmlns:xlink="http://www.w3.org/1999/xlink" x="0px" y="0px"
	 viewBox="0 0 149.1 42" style="enable-background:new 0 0 149.1 42;" xml:space="preserve">
<style type="text/css">
	.st0{fill:#801836;}
</style>
<g id="Capa_1_1_">
	<g>
		<g>
			<path class="st0" d="M2.9,20c0-10.6,8.6-19.2,19.2-19.2S41.3,9.4,41.3,20s-8.6,19.2-19.2,19.2C11.5,39.3,2.9,30.7,2.9,20
				 M23.2,13.6v12.8h2.1V20c0-2.6,1.7-4.3,4.3-4.3s4.3,1.7,4.3,4.3v6.4H36V20c0-4-2.4-6.4-6.4-6.4H23.2z M21,26.4V13.6h-2.1V20
				c0,2.6-1.7,4.3-4.3,4.3s-4.3-1.7-4.3-4.3v-6.4H8.2V20c0,4,2.4,6.4,6.4,6.4H21z"/>
		</g>
		<g>
			<path class="st0" d="M52.4,20.4v5.5h-4.2V9.8h6.1c3.8,0,6.1,1.8,6.1,4.8c0,3.7-3.3,5.7-7.2,5.7C52.9,20.4,52.7,20.4,52.4,20.4z
				 M56.1,15.1c0-1.6-1-2.6-3.3-2.6h-0.4v5c0.3,0,0.6,0,0.8,0C55.3,17.5,56.1,16.7,56.1,15.1z"/>
			<path class="st0" d="M66.5,26.3c-3,0-5.8-1.6-5.8-6c0-4.2,2.3-6.7,6.1-6.7c4,0,4.8,2.6,4.8,5.2c0,0.5-0.1,1.4-0.2,1.8h-6.8
				c0.3,2.1,1.6,2.7,2.8,2.7c1.3,0,2.7-0.3,3.6-0.7l0.6,2.6C70.4,25.9,68.7,26.3,66.5,26.3z M64.7,18.4H68c0-1.5-0.7-2.3-1.8-2.3
				C65.3,16.1,64.8,16.6,64.7,18.4z"/>
			<path class="st0" d="M77.5,17.4v8.5h-4V14.2l2.9-0.6l0.9,1.4c0.7-0.6,1.9-1.4,3-1.4c0.7,0,1,0.1,1.1,0.1L81,17.1
				C80.8,17,80.1,17,79.8,17C79.1,17,78.2,17.1,77.5,17.4z"/>
			<path class="st0" d="M84.4,7.8c0.8,0,2.5,1.2,2.5,2.1c0,0.8-1.5,2.4-2.3,2.4s-2.5-1.2-2.5-2.1C82.1,9.4,83.5,7.8,84.4,7.8z
				 M86.5,13.6v12.3h-4V14.1L86.5,13.6z"/>
			<path class="st0" d="M94.1,26.3c-3.4,0-5.9-1.8-5.9-6.1c0-4.1,2.7-6.6,6.6-6.6c3.6,0,5.9,1.9,5.9,6.1
				C100.8,23.8,98.1,26.3,94.1,26.3z M94.9,8.3l4,0.7l-4.1,3.6h-3.3L94.9,8.3z M94.3,16.4c-1.1,0-1.9,0.5-1.9,3.3
				c0,3.3,1.1,3.9,2.5,3.9c1.1,0,1.9-0.5,1.9-3.3C96.7,17,95.6,16.4,94.3,16.4z"/>
			<path class="st0" d="M110.6,25.2c-0.9,0.6-2.4,1.2-3.7,1.2c-2.6-0.1-4.9-1.8-4.9-6.1c0-4.5,3.3-6.7,6-6.7c0.8,0,1.6,0.1,2.3,0.1
				V8.2l4-0.6v18.1l-2.9,0.6L110.6,25.2z M110.3,23.1v-6.3c-0.6-0.2-1.2-0.3-1.9-0.3c-1.4,0-2.3,0.9-2.3,3.5c0,2.7,1.4,3.4,2.6,3.4
				C109.3,23.4,109.8,23.3,110.3,23.1z"/>
			<path class="st0" d="M118.6,7.8c0.8,0,2.5,1.2,2.5,2.1c0,0.8-1.5,2.4-2.3,2.4s-2.5-1.2-2.5-2.1C116.3,9.4,117.7,7.8,118.6,7.8z
				 M120.7,13.6v12.3h-4V14.1L120.7,13.6z"/>
			<path class="st0" d="M132.5,25.5c-1.2,0.5-2.6,0.8-4,0.8c-3.2,0-6.1-1.8-6.1-5.9c0-4.6,3.1-6.8,6.6-6.8c1.7,0,2.8,0.3,3.5,0.7
				l-0.7,3c-0.6-0.3-2.1-0.7-2.8-0.6c-1.7,0-2.6,0.8-2.6,3.2c0,2.6,1.6,3.4,3.1,3.4c0.9,0,1.7-0.2,2.6-0.5L132.5,25.5z"/>
			<path class="st0" d="M139.5,26.3c-3.4,0-5.9-1.8-5.9-6.1c0-4.1,2.7-6.6,6.6-6.6c3.6,0,5.9,1.9,5.9,6.1
				C146.2,23.8,143.5,26.3,139.5,26.3z M139.6,16.4c-1.1,0-1.9,0.5-1.9,3.3c0,3.3,1.1,3.9,2.5,3.9c1.1,0,1.9-0.5,1.9-3.3
				C142.1,17,141,16.4,139.6,16.4z"/>
		</g>
		<g>
			<path class="st0" d="M118.7,36.9c-0.5,1-1.3,1.8-2,1.8c-0.8,0-1.5-0.6-1.5-2.5c0-2.3,1.5-3.9,2.8-3.9c0.4,0,0.8,0.1,1.1,0.1
				l0.2-3.1l1.1-0.2l-0.6,9.3l-0.9,0.2L118.7,36.9z M118.9,34.4l0.1-1c-0.3-0.1-0.8-0.2-1.2-0.2c-0.8,0-1.4,0.9-1.4,2.9
				c0,1.3,0.4,1.7,0.8,1.7C117.6,37.8,118.7,36.7,118.9,34.4z"/>
			<path class="st0" d="M123,32.3l-0.4,6.2h-1.1l0.4-6L123,32.3z M122.6,29.6c0.2,0,0.7,0.4,0.7,0.7c0,0.2-0.5,0.8-0.7,0.8
				s-0.7-0.4-0.7-0.6C121.9,30.2,122.4,29.6,122.6,29.6z"/>
			<path class="st0" d="M125.6,41.2c-1.3,0-2.1-0.5-2.1-1.3c0-0.5,0.3-1,1.1-1.5l0.7-0.5c-0.6-0.3-0.7-0.6-0.7-0.8
				c0-0.4,0.3-0.7,0.8-1.1c-0.7-0.2-1.1-0.8-1.1-1.6c0-1.2,0.9-2.1,2.3-2.1c0.3,0,0.6,0.1,0.8,0.2l0.9-1.3l0.6,0.6l-0.1,0.3l-1,0.7
				c0.3,0.3,0.5,0.7,0.5,1.2c0,1.2-0.9,2.1-2.3,2.1l0,0c-0.4,0.2-0.5,0.4-0.5,0.6c0,0.3,0.5,0.5,1.5,0.9s1.4,0.8,1.4,1.5
				C128.5,40.2,127,41.2,125.6,41.2z M127.5,39.4c0-0.5-0.4-0.8-1.4-1.2c-0.1,0-0.2-0.1-0.3-0.1l-0.5,0.3c-0.5,0.4-0.8,0.6-0.8,1.1
				c0,0.4,0.5,0.8,1.5,0.8C126.8,40.4,127.5,40,127.5,39.4z M127.4,34.2c0-0.8-0.5-1.2-1.1-1.2s-1,0.4-1,1.2c0,0.7,0.5,1.2,1,1.2
				C126.9,35.4,127.4,35.1,127.4,34.2z"/>
			<path class="st0" d="M131.1,32.3l-0.4,6.2h-1.1l0.4-6L131.1,32.3z M130.7,29.6c0.2,0,0.7,0.4,0.7,0.7c0,0.2-0.5,0.8-0.7,0.8
				s-0.7-0.4-0.7-0.6C130,30.2,130.5,29.6,130.7,29.6z"/>
			<path class="st0" d="M133.8,38.7c-0.6,0-1.2-0.5-1.2-1.2c0-0.3,0-0.6,0.4-4.2h-1l0.1-0.6l1-0.1c0-0.4,0.1-0.8,0.1-1.2l1.1-0.2
				c-0.1,0.5-0.1,1-0.2,1.4h1.9l-0.2,0.8H134c-0.2,2-0.4,3.3-0.4,3.8s0.3,0.7,0.6,0.7c0.4,0,0.8-0.2,1.3-0.6l0.2,0.7
				C135.1,38.4,134.5,38.7,133.8,38.7z"/>
			<path class="st0" d="M140,37.1c-0.5,1-1.4,1.6-2,1.6c-0.8,0-1.4-0.6-1.4-2.4c0-2.1,1.2-4,3-4c0.6,0,1.3,0.2,1.8,0.4l-0.4,5.8
				l-0.9,0.2L140,37.1z M140.2,34.9l0.1-1.5c-0.3-0.1-0.7-0.2-1-0.2c-0.8,0-1.5,1-1.5,3.1c0,1,0.3,1.6,0.8,1.6
				C139,37.8,139.9,37.1,140.2,34.9z"/>
			<path class="st0" d="M145.1,38.1c-0.6,0.4-1.1,0.6-1.4,0.6c-0.5,0-0.9-0.3-0.9-1c0-0.4,0.1-0.8,0.6-8.3l1.1-0.2
				c-0.5,6.9-0.6,7.7-0.6,8s0.2,0.5,0.4,0.5s0.5-0.1,0.7-0.3L145.1,38.1z"/>
		</g>
	</g>
</g>
<g id="Capa_3">
</g>
<g id="Capa_2">
</g>
</svg>
