<?xml version="1.0" encoding="utf-8"?>
<!-- Generator: Adobe Illustrator 21.0.2, SVG Export Plug-In . SVG Version: 6.00 Build 0)  -->
<svg version="1.1" xmlns="http://www.w3.org/2000/svg" xmlns:xlink="http://www.w3.org/1999/xlink" x="0px" y="0px"
	 viewBox="0 0 199.9 52.6" style="enable-background:new 0 0 199.9 52.6;" xml:space="preserve">
<style type="text/css">
	.st0{fill:#4CB5BF;}
	.st1{fill:#F0F0F0;}
	.st2{fill:#88304E;}
	.st3{opacity:0.2;}
	.st4{fill:#333333;}
	.st5{fill:#9E9E9E;}
	.st6{opacity:0.5;fill:#FFFFFF;}
	.st7{fill:#FFFFFF;}
	.st8{fill:#3A3A3A;}
	.st9{clip-path:url(#SVGID_6_);}
	.st10{clip-path:url(#SVGID_12_);}
	.st11{fill:none;stroke:#4CB5BF;stroke-miterlimit:10;}
	.st12{opacity:0.43;fill:#FFFFFF;}
	.st13{fill:none;stroke:#FFD261;stroke-width:11;stroke-linecap:round;stroke-miterlimit:10;}
	.st14{opacity:0.55;}
	.st15{fill:none;}
	.st16{fill:#FFCC52;}
	.st17{fill:#303030;}
	.st18{fill:none;stroke:#3B3A3A;stroke-width:0.5;stroke-miterlimit:10;}
	.st19{fill:#3A3939;}
	.st20{fill:none;stroke:#3A3939;stroke-miterlimit:10;}
	.st21{opacity:0.75;fill:#FFFFFF;}
	.st22{opacity:0.75;}
	.st23{fill:none;stroke:#383738;stroke-miterlimit:10;}
	.st24{clip-path:url(#SVGID_34_);}
	.st25{clip-path:url(#SVGID_40_);}
	.st26{clip-path:url(#SVGID_58_);}
	.st27{clip-path:url(#SVGID_64_);}
	.st28{clip-path:url(#SVGID_70_);}
	.st29{fill:none;stroke:#88304E;stroke-miterlimit:10;}
	.st30{fill:none;stroke:#88304E;stroke-width:13;stroke-linecap:round;stroke-linejoin:round;stroke-miterlimit:10;}
	.st31{fill:#666666;}
	.st32{fill:#FFCC5C;}
	.st33{fill:#494949;}
	.st34{clip-path:url(#SVGID_88_);}
	.st35{fill:#66273F;}
	.st36{fill:none;stroke:#FFD261;stroke-width:5;stroke-miterlimit:10;}
	.st37{opacity:0.36;fill:#4CB5BF;}
	.st38{fill:#606060;}
	.st39{opacity:0.5;}
	.st40{clip-path:url(#SVGID_106_);}
	.st41{fill:#3B3A3A;}
	.st42{clip-path:url(#SVGID_112_);}
	.st43{opacity:0.43;}
	.st44{fill:#FFD261;}
	.st45{fill:#878787;}
	.st46{fill:#383738;}
	.st47{clip-path:url(#SVGID_130_);}
	.st48{clip-path:url(#SVGID_148_);}
	.st49{clip-path:url(#SVGID_154_);}
	.st50{clip-path:url(#SVGID_172_);}
</style>
<g id="Capa_1">
</g>
<g id="Capa_3">
	<path class="st33" d="M68.7,15.2v19.3h-3.3V15.2l-7,0.1l0.4-2.6h16.9l-0.4,2.6L68.7,15.2z"/>
	<path class="st33" d="M84.8,34.8c-4.2,0-7.5-2.5-7.5-8c0-5.7,3.1-8.8,7.4-8.8c3.9,0,5.8,2.6,5.8,6.1c0,0.7,0,1.7-0.1,2.1H80.3v0.2
		c0,4.6,2.6,6,5.2,6c1.6,0,3.1-0.3,4.6-0.9l0.5,2C88.9,34.3,86.9,34.8,84.8,34.8z M80.4,24.2h7.2c0-2.8-1.2-4.1-3.5-4.1
		C82,20,80.8,21,80.4,24.2z"/>
	<path class="st33" d="M100.5,34.3c-0.5,0.2-1.9,0.6-2.9,0.6c-1.8,0-3.1-1-3.1-3.1V10.3l3-0.5v21.4c0,0.7,0.5,1.1,1.2,1.1
		c0.4,0,1.1-0.1,1.4-0.2L100.5,34.3z"/>
	<path class="st33" d="M110.3,34.8c-4.2,0-7.5-2.5-7.5-8c0-5.7,3.1-8.8,7.4-8.8c3.9,0,5.8,2.6,5.8,6.1c0,0.7,0,1.7-0.1,2.1h-10.2
		v0.2c0,4.6,2.6,6,5.2,6c1.6,0,3.1-0.3,4.6-0.9l0.5,2C114.3,34.3,112.3,34.8,110.3,34.8z M105.8,24.2h7.2c0-2.8-1.2-4.1-3.5-4.1
		C107.4,20,106.2,21,105.8,24.2z"/>
	<path class="st33" d="M123.2,34.4l-5.6-15.8l3.2-0.5l4.6,13.6l4.4-13.3h3.1l-5.8,16H123.2z"/>
	<path class="st33" d="M137.2,11c0.6,0,2.2,1,2.2,1.8c0,0.8-1.4,2.1-2,2.1c-0.7,0-2.2-1-2.2-1.8C135.2,12.3,136.5,11,137.2,11z
		 M138.8,18v16.4h-3.1V18.5L138.8,18z"/>
	<path class="st33" d="M142.6,33.9l0.5-2.5c1.8,0.6,3.5,1.1,5.5,1.1c1.4,0,2.6-0.7,2.6-2.2c0-1.2-1-2-2.4-2.6l-2.3-0.9
		c-1.8-0.7-3.4-1.8-3.4-4.2c0-2.9,3.2-4.7,5.7-4.7c2.3,0,4.2,0.4,5.1,0.7l-0.6,2.4c-1.7-0.5-3.5-0.9-4.8-0.9c-1.6,0-2.6,0.7-2.6,1.9
		s0.7,1.9,2.5,2.5l2,0.8c2.1,0.8,3.8,2,3.8,4.3c0,3.2-3.3,5.1-6.4,5.1C145.7,34.8,143.8,34.4,142.6,33.9z"/>
	<path class="st33" d="M159.5,11c0.6,0,2.2,1,2.2,1.8c0,0.8-1.4,2.1-2,2.1c-0.7,0-2.2-1-2.2-1.8C157.5,12.3,158.8,11,159.5,11z
		 M161,18v16.4H158V18.5L161,18z"/>
	<path class="st33" d="M171.9,34.9c-4.2,0-7-3-7-8.1c0-5.5,3.3-8.8,8.3-8.8c4.3,0,6.9,3,6.9,8.1C180.1,31.6,176.8,34.8,171.9,34.9z
		 M172.1,20.3c-2.7,0-4.1,1.9-4.1,5.7c0,4.8,2,6.5,4.9,6.5c2.7,0,4.1-1.9,4.1-5.7C177,22,175,20.3,172.1,20.3z M174.4,11.1l3.2,0.6
		l-5.3,4.6h-2.5L174.4,11.1z"/>
	<path class="st33" d="M187,21.5v12.9h-3.1V18.5l2.2-0.5l0.7,1.7c1.4-0.8,3.6-1.7,5.2-1.7c3,0,4.9,1.8,4.9,4.7v11.7h-3.1V23.8
		c0-2.3-1.3-3.4-3.1-3.4C189.5,20.5,188.1,21,187,21.5z"/>
	<path class="st33" d="M0.8,26.3C0.8,12.3,12.1,1,26,1c14,0,25.3,11.3,25.3,25.3S40,51.5,26,51.5C12.1,51.5,0.8,40.2,0.8,26.3
		 M27.4,17.8v16.8h2.8v-8.4c0-3.4,2.2-5.6,5.6-5.6c3.4,0,5.6,2.2,5.6,5.6v8.4h2.8v-8.4c0-5.2-3.2-8.4-8.4-8.4H27.4z M24.6,34.7V17.8
		h-2.8v8.4c0,3.4-2.2,5.6-5.6,5.6c-3.4,0-5.6-2.2-5.6-5.6v-8.4H7.8v8.4c0,5.2,3.2,8.4,8.4,8.4H24.6z"/>
</g>
<g id="Capa_2">
</g>
</svg>
